<?xml version="1.0" encoding="utf-8"?>
<!-- Generator: Adobe Illustrator 24.0.1, SVG Export Plug-In . SVG Version: 6.00 Build 0)  -->
<svg version="1.0" id="Layer_1" xmlns="http://www.w3.org/2000/svg" xmlns:xlink="http://www.w3.org/1999/xlink" x="0px" y="0px"
	 viewBox="0 0 219 90" style="enable-background:new 0 0 219 90;" xml:space="preserve">
<style type="text/css">
	.st0{fill:#C1CDDB;}
	.st1{fill:#FFFFFF;}
</style>
<path class="st0" d="M1292.1,145c0.3,0,0.6,0,0.9-0.1c0,2.4-0.1,4.8-0.1,7.2c-0.3,0-0.6,0-0.8-0.1
	C1292.1,149.7,1292.1,147.3,1292.1,145z"/>
<g>
	<path class="st1" d="M34.7,15.1C34.7,15.1,34.7,15,34.7,15.1c0.2-0.1,0.4-0.1,0.6-0.1c0,0,0,0.1,0,0.1
		C35.1,15.1,34.9,15.1,34.7,15.1z"/>
	<path class="st1" d="M70.4,45.9c0-2.4-0.2-4.8-0.2-7.2c-0.1-2.3,0-4.7,0-7c0-0.9,0-1.9,0.1-2.8c0.1-1.3,0.1-2.6,0.1-4
		c0-1.3-0.8-1.9-2.1-1.6c-1.3,0.3-2.3,1.1-3.1,2.2c-1.6,2.1-2.3,4.5-2.2,7.1c0.2,2.7,0.3,5.4,0.4,8c0.2,3.9,0.4,7.7,0.6,11.6
		c0.1,1.7,0.2,3.4-0.1,5.1C62.8,64.2,56.3,69,49.5,68c-7.1-1-11.7-7.6-10.8-14.3c0.9-6.4,6.5-11.2,12.9-11c0.5,0,1-0.1,1.3-0.4
		c1.4-1.2,2-2.6,1.5-4.4c-0.4-1.7-1.4-3.2-2.5-4.6c-1.7-2.1-3.6-4.2-5.4-6.2c-3-3.3-6-6.7-8.9-10.1c-0.7-0.8-1.4-1.6-2.4-1.8
		c-0.2-0.1-0.3,0-0.5,0c-1.4,0.1-2.6,1.5-2.4,2.9c0.2,1.1,0.8,2.1,1.5,2.9c4.1,5.3,8.1,10.5,12,16c0.1,0.2,0.2,0.3,0.3,0.5
		c0.1,0.2,0.1,0.4-0.1,0.6c-0.2,0.2-0.4,0.2-0.6,0.1c-0.3-0.1-0.5-0.2-0.7-0.5c-0.3-0.4-0.7-0.8-1-1.2c-2-2.6-4.2-5.1-6.4-7.5
		c-1.5-1.6-3-3.2-4.5-4.8c-1.6-1.7-3.2-3.3-4.8-4.9c-0.2-0.2-0.5-0.4-0.7-0.6c-1.1-0.8-2.3-0.8-3.3-0.1c-1.5,1.1-1.8,2.8-0.7,4.3
		c0.8,1.1,1.7,2.1,2.6,3.1c1.6,1.9,3.2,3.7,4.8,5.6c1.4,1.7,2.9,3.3,4.3,4.9c1.5,1.6,2.9,3.3,4.4,4.9c0.4,0.4,0.7,0.8,1,1.3
		c0.2,0.5,0.1,0.9-0.2,1.1c-0.4,0.3-0.7,0.3-1.2,0c-0.3-0.2-0.5-0.4-0.7-0.6c-0.8-0.8-1.6-1.6-2.3-2.4c-2.8-2.8-5.6-5.6-8.3-8.4
		c-1.7-1.8-3.5-3.6-5.3-5.2c-0.4-0.4-0.9-0.8-1.5-1c-0.8-0.3-1.6-0.3-2.3,0.1c-1.2,0.7-1.8,2.8-1.1,4c0.3,0.5,0.7,1,1,1.5
		c1.6,2.1,3.4,3.9,5.2,5.8c1.7,1.8,3.4,3.6,5.1,5.4c1.8,1.8,3.5,3.7,5.2,5.6c0.4,0.4,0.4,0.9,0,1.3c-0.3,0.3-0.7,0.3-1.1-0.1
		c-0.7-0.6-1.4-1.2-2.1-1.7c-3.5-3-7-6-10.5-9.1c-0.9-0.8-1.8-1.5-3.1-1.4c-1,0.1-1.7,0.7-1.8,1.7c0,0.2,0,0.4,0,0.6
		c0,0.3,0.1,0.6,0.2,0.8c0.5,0.8,1.1,1.5,1.8,2.2c1,0.9,1.9,1.8,2.9,2.8c0.9,0.8,1.6,1.7,2.4,2.5c1.3,1.4,2.6,2.8,3.8,4.2
		c1.8,2.2,3.6,4.4,5.3,6.7c1.3,1.8,2.5,3.6,3.6,5.5c1.4,2.5,3.1,4.8,5.3,6.7c2,1.7,4.3,2.8,6.9,3.4c0.9,0.2,1.8,0.2,2.7,0.3
		c0.1,0,0.2,0,0.3,0c0.2,0,0.5,0,0.7,0c0.2,0,0.4,0,0.6,0c0.2,0,0.4,0,0.7,0c0.2,0,0.4,0,0.6,0c0,0,0-0.1,0-0.1h0
		c3.9-0.4,7.3-2,10.1-4.7c3.9-3.8,6.2-8.4,6.7-13.9C70.2,52.8,70.4,49.4,70.4,45.9z"/>
	<path class="st1" d="M51.3,64.6c-5.1,0-9.2-4.1-9.2-9.2c0-5.1,4.1-9.2,9.2-9.2c5.1,0,9.3,4.3,9.2,9.4
		C60.4,60.5,56.3,64.6,51.3,64.6z"/>
	<path class="st1" d="M97.4,57.8c0,1.5,0,3,0,4.6c-0.1,3.7-1.7,6.6-4.9,8.6c-5,3.1-11.4,1.4-14.2-3.8c-0.8-1.4-1.2-3-1.2-4.6
		c0-3.3,0-6.6,0-10c0-0.4,0.1-0.5,0.5-0.5c0.4,0,0.7,0,1.1,0c0.4,0,0.5,0.1,0.5,0.5c0,3.2,0,6.4,0,9.6c0,2.7,1.1,4.9,3.3,6.5
		c5.2,3.9,12,0.5,12.9-5.3c0.1-0.5,0.1-1,0.1-1.5c0-3.1,0-6.2,0-9.4c0-0.4,0.1-0.6,0.5-0.5c0.5,0.1,1.2-0.2,1.5,0.1
		c0.3,0.3,0.1,0.9,0.1,1.4C97.4,55.1,97.4,56.5,97.4,57.8z"/>
	<path class="st1" d="M121.2,66.8c0,1.7,0,3.4,0,5.2c0,0.5-0.1,0.6-0.6,0.5c-0.3,0-0.7,0-1,0c-0.4,0-0.5-0.1-0.5-0.5
		c0-3.2,0-6.4,0-9.6c0-0.5,0-0.9-0.1-1.4c-0.5-3.3-3.5-6.2-6.7-6.7c-4.2-0.7-8.4,2.2-9.3,6.6c-0.1,0.5-0.1,1-0.1,1.6
		c0,3.2,0,6.3,0,9.5c0,0.4-0.1,0.6-0.5,0.5c-0.4,0-0.7,0-1.1,0c-0.3,0-0.4-0.1-0.4-0.4c0-3.3,0-6.7,0-10c0-4.9,4-9.2,8.9-9.8
		c5.5-0.7,10.4,3.3,11.3,8.3c0.1,0.5,0.1,1,0.1,1.6C121.2,63.7,121.2,65.2,121.2,66.8z"/>
	<path class="st1" d="M145,41.5c0,1.8,0,3.5,0,5.3c0,0.4-0.1,0.5-0.4,0.4c-0.4,0-0.8,0-1.2,0c-0.4,0-0.4-0.1-0.4-0.5
		c0-2.5,0-5.1,0-7.6c0-1.1,0.1-2.3-0.1-3.4c-0.6-3.8-4-6.7-7.9-6.8c-3.8,0-7.3,2.8-8,6.6c-0.1,0.6-0.2,1.1-0.2,1.7
		c0,3.2,0,6.4,0,9.6c0,0.4-0.1,0.5-0.5,0.5c-0.4,0-0.8,0-1.3,0c-0.3,0-0.4-0.1-0.4-0.4c0-3.4,0-6.8,0-10.2c0.1-4.8,4-9.1,8.8-9.7
		c5.6-0.7,10.5,3.4,11.4,8.3c0.2,0.8,0.2,1.7,0.2,2.6C145,39,145,40.3,145,41.5z"/>
	<path class="st1" d="M179.7,35.2c0,3.8,0,7.6,0,11.5c0,0.5-0.1,0.6-0.6,0.5c-0.4,0-0.7,0-1.1,0c-0.3,0-0.4-0.1-0.4-0.4
		c0-0.1,0-0.2,0-0.2c0-7.6,0-15.2,0-22.8c0-0.6,0-0.6,0.6-0.6c0.3,0,0.7,0,1,0c0.4,0,0.5,0.1,0.5,0.5c0,2.2,0,4.4,0,6.6
		C179.7,31.9,179.7,33.6,179.7,35.2z"/>
	<path class="st1" d="M148.4,37c0-3.2,0-6.4,0-9.6c0-0.4,0.1-0.5,0.5-0.5c0.4,0,0.8,0,1.3,0c0.2,0,0.3,0.1,0.3,0.3
		c0,0.2,0,0.3,0,0.5c0,6.3,0,12.7,0,19c0,0.4-0.1,0.6-0.5,0.5c-0.4,0-0.7,0-1.1,0c-0.3,0-0.4-0.1-0.4-0.4c0-1.7,0-3.4,0-5.1
		C148.4,40.1,148.4,38.6,148.4,37z"/>
	<path class="st1" d="M150.4,24.3c0,1,0,1-1,1c-1,0-1,0-1-1c0-1,0-1,1-1C150.4,23.2,150.4,23.2,150.4,24.3z"/>
	<path class="st1" d="M174.1,35.6c-0.8-5.6-6-9.5-11.9-8.5c-6.1,1.1-9.6,7.1-7.9,13c2,6.8,10.2,9.4,15.8,5.1
		c1.6-1.2,2.8-2.8,3.5-4.6c0.1-0.3,0.1-0.4-0.3-0.4c-0.5,0-1,0-1.5,0c-0.3,0-0.4,0.1-0.5,0.3c-1.7,3.5-4.8,5.2-8.6,4.7
		c-3.4-0.5-6.4-3.5-6.8-7c0.2,0,0.4,0,0.6,0c4.9,0,9.8,0,14.7,0c0.9,0,1.8,0,2.7,0c0.3,0,0.4-0.1,0.4-0.4
		C174.2,37,174.2,36.3,174.1,35.6z M171.8,36.1c-1.3,0-2.7,0-4,0c-1.3,0-2.5,0-3.8,0c-2.5,0-5.1,0-7.6,0c-0.4,0-0.5-0.1-0.4-0.5
		c0.9-4.1,4.5-6.9,8.7-6.6c3,0.2,6.4,2.2,7.4,6.4c0,0.1,0,0.2,0.1,0.3C172.2,36,172.1,36.1,171.8,36.1z"/>
	<path class="st1" d="M185.8,38.1c5.9,0,11.8,0,17.7,0c0-0.6,0-1.2,0-1.8c0-0.2-0.1-0.5-0.1-0.7c-0.8-5.6-5.9-9.5-11.9-8.5
		c-5.8,1-9.4,6.6-8.1,12.3c1.5,6.8,9,10,15,6.5c2.1-1.2,3.6-3,4.5-5.2c0.2-0.4,0.1-0.5-0.3-0.5c-0.5,0-0.9,0-1.4,0
		c-0.2,0-0.4,0.1-0.5,0.3c-1.7,3.5-4.8,5.2-8.6,4.7c-3.4-0.4-6.4-3.5-6.8-6.9C185.4,38.1,185.6,38.1,185.8,38.1z M185.3,35.6
		c1.2-5.8,8.1-8.9,13.2-4.8c1.6,1.2,2.4,2.9,2.9,4.8c0.1,0.4,0,0.4-0.4,0.4c-2.6,0-5.1,0-7.7,0c-2.5,0-5.1,0-7.6,0
		C185.3,36.1,185.2,36,185.3,35.6z"/>
	<path class="st1" d="M144.8,60.5c-1.2-6.2-7.1-9.5-12.8-7.9c-5.4,1.5-8.4,7-7,12.4c1.6,6.1,8.4,9.3,14.1,6.5
		c2.5-1.2,4.3-3.1,5.3-5.7c0.1-0.3,0.1-0.4-0.3-0.4c-0.5,0-0.9,0-1.4,0c-0.3,0-0.5,0.1-0.6,0.4c-1.5,3.2-4.6,5.1-8.2,4.6
		c-3.6-0.4-6.5-3.2-7.2-6.6c-0.1-0.4,0-0.4,0.4-0.4c2.9,0,5.8,0,8.7,0c2.9,0,5.8,0,8.7,0c0.2,0,0.4,0.1,0.4-0.3
		C145,62.2,145,61.3,144.8,60.5z M142.5,61.3c-2.6,0-5.1,0-7.7,0c-2.5,0-5.1,0-7.6,0c-0.4,0-0.5-0.1-0.4-0.5
		c1.3-5.9,8.1-8.7,13.2-4.8c1.6,1.3,2.5,2.9,2.9,4.8C142.9,61.3,142.8,61.3,142.5,61.3z"/>
	<path class="st1" d="M97.4,23.9c0-0.1,0-0.2,0-0.3c0-0.3-0.1-0.4-0.3-0.4c-0.4,0-0.8,0-1.3,0c-0.4,0-0.5,0.1-0.5,0.5
		c0,2.2,0,4.4,0,6.6c0,0.1,0,0.3,0,0.4c-0.1,0-0.2-0.1-0.2-0.2c-4.1-4.8-11.3-4.9-15.5-0.3c-2.7,3-3.3,7.9-1.4,11.5
		c2.2,4.1,6.6,6.2,11.2,5.2c4.5-0.9,7.9-4.9,8-9.5C97.5,33,97.4,28.4,97.4,23.9z M87,45.2c-4.3,0-7.9-3.8-7.9-8.3
		c0-4.3,3.8-7.9,8.2-7.9c4.4,0,8.1,3.7,8.1,8.1C95.3,41.6,91.6,45.2,87,45.2z"/>
	<path class="st1" d="M121.2,36.8c0-0.4,0-0.7-0.1-1.1c-0.7-5.6-5.9-9.6-11.9-8.6c-5.9,1-9.4,6.6-8.1,12.3c1.6,7,9.5,10.1,15.5,6.2
		c0.9-0.6,1.7-1.3,2.5-2.2c0,1.1,0,2.3,0,3.4c0,0.3,0.1,0.4,0.4,0.4c0.4,0,0.8,0,1.2,0c0.4,0,0.5-0.1,0.5-0.5
		C121.2,43.4,121.2,40.1,121.2,36.8z M111,45.2c-4.4,0-8.1-3.7-8.1-8.1c0-4.4,3.7-8.1,8.1-8.1c4.4,0,8.1,3.7,8.1,8.1
		C119.1,41.5,115.4,45.2,111,45.2z"/>
</g>
</svg>
